<svg fill="#FFFFFF" xmlns="http://www.w3.org/2000/svg" data-name="Layer 2" viewBox="0 0 100 100" x="0px" y="0px"><title>SUMMER_VACATION_ICONS</title><path d="M61.25,21.61a8.245,8.245,0,1,0-8.24,8.24A8.256,8.256,0,0,0,61.25,21.61Zm-13.53,0a5.29,5.29,0,1,1,5.29,5.28A5.29207,5.29207,0,0,1,47.72,21.61Z"></path><path d="M94.54,64.64,59.36,40.46c3.3-6.67,6.95-14.94995,6.95-18.85a13.3,13.3,0,1,0-26.6,0c0,4.81,5.54,16.25,9.13,23.16l-6.10664,4.76733q-8.82762,0-17.65531,0a10.596,10.596,0,0,0-1.87061.03034c-1.06229.19155-2.19879,1.49034-3.0309,2.18075l-3.55014,2.94554L8.57952,61.37044,5.35,64.05a1.47429,1.47429,0,0,0,.11,2.35L42.4,91.79a1.53647,1.53647,0,0,0,.84.26,1.47724,1.47724,0,0,0,.95-.34L60.84822,77.88147q8.666,0,17.33208-.00109c1.30158-.0003,2.35387.11072,3.38638-.67483.847-.6444,1.67833-1.31061,2.51713-1.96564l7.40944-5.78608L94.61,67.02a1.46881,1.46881,0,0,0,.57-1.21A1.44675,1.44675,0,0,0,94.54,64.64ZM42.67,21.61a10.34,10.34,0,1,1,20.68,0c0,3.16-3.31,10.74-6.58,17.38-.97,1.98-1.94,3.87-2.81,5.54-.33.63-.65,1.23-.95,1.79-.13-.24005-.26-.49005-.4-.74005-.44-.83-.91-1.72-1.39-2.67C47.47,35.64,42.67,25.42,42.67,21.61Zm.49,67.11L8.75,65.07l14.7-12.2L57.87,76.51ZM60.77545,74.92371,28.14,52.5l-.0072-.00494h14.64L42.78,52.5,66.3924,68.71906l9.0296,6.20465Zm19.3548-.35389L45.74078,50.93939,50.24,47.43c.72,1.35,1.25,2.31,1.47,2.71a1.48332,1.48332,0,0,0,2.59,0c.42-.75,1.92-3.47,3.72-7.01L91.2,65.93Z"></path></svg>